# Aspose.3D Wavefront OBJ Exporter
# Copyright 2004-2024 Aspose Pty Ltd.
# File created: 01/19/2025 02:56:06

mtllib material.lib
g Plane.001

#
# object Plane.001
#

v -227.06317 -20.404324 17.773985
v 162.39685 -5.7344713 17.773985
v -227.06317 20.670805 17.773985
v 162.39685 16.446154 17.773985
v -228.43045 -20.404324 17.773985
v -228.43045 34.799465 17.773985
v -299.77097 -38.35793 17.77398
v -311.13763 8.99984 13.114285
v -350.11517 -92.31052 6.662301
v -360.14984 -7.235006 6.6623006
v -387.22305 -78.477844 6.6623015
v -391.4064 -6.4832497 6.6623025
v -664.76917 -166.84172 3.3952272
v -673.53687 -39.3522 3.3952305
v -281.9377 20.760244 13.114286
v -281.39044 33.476883 13.114289
v -227.06317 -20.404322 -46.5814
v 162.39685 -5.7344704 -46.5814
v -227.06317 20.670807 -46.5814
v 162.39685 16.446157 -46.5814
v -228.43045 -20.404322 -46.5814
v -228.43045 34.799465 -46.581398
v -299.77097 -38.357925 -46.581406
v -311.13763 8.99984 -41.92171
v -350.11517 -92.31051 -35.46975
v -360.14984 -7.2350044 -35.46975
v -387.22305 -78.477844 -35.469746
v -391.4064 -6.483248 -35.46975
v -664.76917 -166.84172 -32.202694
v -673.53687 -39.3522 -32.20269
v -281.9377 20.760244 -41.921707
v -281.39044 33.476883 -41.921703
v 162.39685 -13.294419 -14.403708
v -227.06317 -20.404322 -14.403709
v -664.76917 -178.54231 -14.403732
v -673.53687 -27.651615 -14.403731
v -228.43045 -20.404322 -14.403709
v -299.77097 -38.357925 -14.403714
v 162.39685 16.446156 -14.4037075
v -391.4064 -6.483249 -14.403723
v -227.06317 20.670807 -14.4037075
v -387.22305 -78.477844 -14.403722
v -360.14984 -7.235005 -14.403723
v -311.13763 8.999839 -14.403711
v -281.9377 20.760244 -14.403711
v -281.39044 33.476887 -14.403707
v -350.11517 -92.31052 -14.403722
v -228.43045 34.799465 -14.403708
v -228.69101 21.04926 -14.597838
v 739.88196 21.049217 -14.597838
v -228.69101 5.2663536 -6.4036036
v 739.88196 5.266311 -6.4036036
v -228.69101 5.2663527 9.984869
v 739.88196 5.26631 9.984869
v -228.69101 21.049261 18.179104
v 739.88196 21.049217 18.179104
v -228.69101 36.832165 9.984869
v 739.88196 36.832127 9.984869
v -228.69101 36.832165 -6.403602
v 739.88196 36.832127 -6.403602
v -228.69098 21.049246 -45.4879
v 739.88196 21.049204 -45.4879
v -228.69098 5.2663417 -37.293663
v 739.88196 5.2662992 -37.293663
v -228.69098 5.266342 -20.905197
v 739.88196 5.2662997 -20.905197
v -228.69098 21.049248 -12.71096
v 739.88196 21.049206 -12.71096
v -228.69098 36.832153 -20.905195
v 739.88196 36.83211 -20.905195
v -228.69098 36.832153 -37.293663
v 739.88196 36.83211 -37.293663
# 72 vertices

vn -4.6551707E-10 4.2436454E-08 -1
vn -4.6551707E-10 4.2436454E-08 -1
vn -4.6551707E-10 4.2436454E-08 -1
vn -4.6551707E-10 4.2436454E-08 -1
vn 1.5721263E-07 3.0840756E-08 -0.99999994
vn 1.5721263E-07 3.0840756E-08 -0.99999994
vn 1.5721263E-07 3.0840756E-08 -0.99999994
vn 1.5721263E-07 3.0840756E-08 -0.99999994
vn 0.024985384 -0.025869045 -0.9993531
vn 0.024985384 -0.025869045 -0.9993531
vn 0.024985384 -0.025869045 -0.9993531
vn 0.024985384 -0.025869045 -0.9993531
vn 0.024985384 -0.025869045 -0.9993531
vn 0.024985384 -0.025869045 -0.9993531
vn 0.089547366 -0.0029393206 -0.9959782
vn 0.089547366 -0.0029393206 -0.9959782
vn 0.089547366 -0.0029393206 -0.9959782
vn 0.089547366 -0.0029393206 -0.9959782
vn -2.6220878E-08 2.2630395E-08 -1
vn -2.6220878E-08 2.2630395E-08 -1
vn -2.6220878E-08 2.2630395E-08 -1
vn -2.6220878E-08 2.2630395E-08 -1
vn 0.0057197153 0.00037137352 -0.99998355
vn 0.0057197153 0.00037137352 -0.99998355
vn 0.0057197153 0.00037137352 -0.99998355
vn 0.0057197153 0.00037137352 -0.99998355
vn 1.1862469E-08 -4.371139E-08 1
vn 1.1862469E-08 -4.371139E-08 1
vn 1.1862469E-08 -4.371139E-08 1
vn 1.1862469E-08 -4.371139E-08 1
vn 0 -4.3711385E-08 0.99999994
vn 0 -4.3711385E-08 0.99999994
vn 0 -4.3711385E-08 0.99999994
vn 0 -4.3711385E-08 0.99999994
vn 0.024985287 -0.025869131 0.99935305
vn 0.024985287 -0.025869131 0.99935305
vn 0.024985287 -0.025869131 0.99935305
vn 0.024985287 -0.025869131 0.99935305
vn 0.024985287 -0.025869131 0.99935305
vn 0.024985287 -0.025869131 0.99935305
vn 0.089547224 -0.002939402 0.9959783
vn 0.089547224 -0.002939402 0.9959783
vn 0.089547224 -0.002939402 0.9959783
vn 0.089547224 -0.002939402 0.9959783
vn 5.2237702E-08 -1.7425648E-08 1
vn 5.2237702E-08 -1.7425648E-08 1
vn 5.2237702E-08 -1.7425648E-08 1
vn 5.2237702E-08 -1.7425648E-08 1
vn 0.00571969 0.0003713031 0.99998355
vn 0.00571969 0.0003713031 0.99998355
vn 0.00571969 0.0003713031 0.99998355
vn 0.00571969 0.0003713031 0.99998355
vn -0.02720108 0.97280574 0.23001985
vn -0.02720108 0.97280574 0.23001985
vn -0.02720108 0.97280574 0.23001985
vn -0.02720108 0.97280574 0.23001985
vn 0.998022 0.06286598 2.7479592E-09
vn 0.998022 0.06286598 2.7479592E-09
vn 0.998022 0.06286598 2.7479592E-09
vn 0.998022 0.06286598 2.7479592E-09
vn -0.24405108 0.9697623 4.2389658E-08
vn -0.24405108 0.9697623 4.2389658E-08
vn -0.24405108 0.9697623 4.2389658E-08
vn -0.24405108 0.9697623 4.2389658E-08
vn -1 0 0
vn -1 0 0
vn -1 0 0
vn -1 0 0
vn 0.0831048 -0.8522721 0.5164551
vn 0.0831048 -0.8522721 0.5164551
vn 0.0831048 -0.8522721 0.5164551
vn 0.0831048 -0.8522721 0.5164551
vn -0.010846819 -0.9999412 -4.3708816E-08
vn -0.010846819 -0.9999412 -4.3708816E-08
vn -0.010846819 -0.9999412 -4.3708816E-08
vn -0.010846819 -0.9999412 -4.3708816E-08
vn -0.27745748 0.8216525 0.4979001
vn -0.27745748 0.8216525 0.4979001
vn -0.27745748 0.8216525 0.4979001
vn -0.27745748 0.8216525 0.4979001
vn 0.3144395 -0.9492775 -4.149424E-08
vn 0.3144395 -0.9492775 -4.149424E-08
vn 0.3144395 -0.9492775 -4.149424E-08
vn 0.3144395 -0.9492775 -4.149424E-08
vn 0.9990751 -0.042997126 4.2947734E-09
vn 0.9990751 -0.042997126 4.2947734E-09
vn 0.9990751 -0.042997126 4.2947734E-09
vn 0.9990751 -0.042997126 4.2947734E-09
vn -0.7311332 0.68223476 2.982143E-08
vn -0.7311332 0.68223476 2.982143E-08
vn -0.7311332 0.68223476 2.982143E-08
vn -0.7311332 0.68223476 2.982143E-08
vn -0.9953497 -0.09632706 1.4728286E-08
vn -0.9953497 -0.09632706 1.4728286E-08
vn -0.9953497 -0.09632706 1.4728286E-08
vn -0.9953497 -0.09632706 1.4728286E-08
vn 0.024965446 -0.9996883 3.0642337E-07
vn 0.024965446 -0.9996883 3.0642337E-07
vn 0.024965446 -0.9996883 3.0642337E-07
vn 0.024965446 -0.9996883 3.0642337E-07
vn 0 1 -5.459615E-08
vn 0 1 -5.459615E-08
vn 0 1 -5.459615E-08
vn 0 1 -5.459615E-08
vn -0.024044182 -0.99971086 -4.3698748E-08
vn -0.024044182 -0.99971086 -4.3698748E-08
vn -0.024044182 -0.99971086 -4.3698748E-08
vn -0.024044182 -0.99971086 -4.3698748E-08
vn 0.3492898 0.9370147 4.0958213E-08
vn 0.3492898 0.9370147 4.0958213E-08
vn 0.3492898 0.9370147 4.0958213E-08
vn 0.3492898 0.9370147 4.0958213E-08
vn 0.37359247 -0.927593 -4.054638E-08
vn 0.37359247 -0.927593 -4.054638E-08
vn 0.37359247 -0.927593 -4.054638E-08
vn 0.37359247 -0.927593 -4.054638E-08
vn 0.37359247 -0.92759293 1.1923028E-07
vn 0.37359247 -0.92759293 1.1923028E-07
vn 0.37359247 -0.92759293 1.1923028E-07
vn 0.37359247 -0.92759293 1.1923028E-07
vn 0.3492898 0.9370147 4.0958213E-08
vn 0.3492898 0.9370147 4.0958213E-08
vn 0.3492898 0.9370147 4.0958213E-08
vn 0.3492898 0.9370147 4.0958213E-08
vn -0.024044182 -0.99971086 -4.3698748E-08
vn -0.024044182 -0.99971086 -4.3698748E-08
vn -0.024044182 -0.99971086 -4.3698748E-08
vn -0.024044182 -0.99971086 -4.3698748E-08
vn 0 1 4.371139E-08
vn 0 1 4.371139E-08
vn 0 1 4.371139E-08
vn 0 1 4.371139E-08
vn 0.024965394 -0.9996883 -4.3697764E-08
vn 0.024965394 -0.9996883 -4.3697764E-08
vn 0.024965394 -0.9996883 -4.3697764E-08
vn 0.024965394 -0.9996883 -4.3697764E-08
vn -0.99535006 -0.09632307 -4.210415E-09
vn -0.99535006 -0.09632307 -4.210415E-09
vn -0.99535006 -0.09632307 -4.210415E-09
vn -0.99535006 -0.09632307 -4.210415E-09
vn -0.7311334 0.6822345 2.982142E-08
vn -0.7311334 0.6822345 2.982142E-08
vn -0.7311334 0.6822345 2.982142E-08
vn -0.7311334 0.6822345 2.982142E-08
vn 0.99907523 -0.042997126 -1.8794641E-09
vn 0.99907523 -0.042997126 -1.8794641E-09
vn 0.99907523 -0.042997126 -1.8794641E-09
vn 0.99907523 -0.042997126 -1.8794641E-09
vn 0.31443942 -0.9492775 4.1269665E-08
vn 0.31443942 -0.9492775 4.1269665E-08
vn 0.31443942 -0.9492775 4.1269665E-08
vn 0.31443942 -0.9492775 4.1269665E-08
vn -0.2774574 0.8216525 -0.4979001
vn -0.2774574 0.8216525 -0.4979001
vn -0.2774574 0.8216525 -0.4979001
vn -0.2774574 0.8216525 -0.4979001
vn -0.010846821 -0.9999412 -4.3708816E-08
vn -0.010846821 -0.9999412 -4.3708816E-08
vn -0.010846821 -0.9999412 -4.3708816E-08
vn -0.010846821 -0.9999412 -4.3708816E-08
vn 0.083104774 -0.85227215 -0.5164551
vn 0.083104774 -0.85227215 -0.5164551
vn 0.083104774 -0.85227215 -0.5164551
vn 0.083104774 -0.85227215 -0.5164551
vn -1 0 0
vn -1 0 0
vn -1 0 0
vn -1 0 0
vn -0.24405111 0.9697623 4.2389658E-08
vn -0.24405111 0.9697623 4.2389658E-08
vn -0.24405111 0.9697623 4.2389658E-08
vn -0.24405111 0.9697623 4.2389658E-08
vn 0.99802196 0.06286623 2.7479703E-09
vn 0.99802196 0.06286623 2.7479703E-09
vn 0.99802196 0.06286623 2.7479703E-09
vn 0.99802196 0.06286623 2.7479703E-09
vn -0.027201086 0.97280574 -0.23001984
vn -0.027201086 0.97280574 -0.23001984
vn -0.027201086 0.97280574 -0.23001984
vn -0.027201086 0.97280574 -0.23001984
vn -1.1208377E-08 -0.2497636 -0.9683068
vn -1.1208377E-08 -0.2497636 -0.9683068
vn -1.1208377E-08 -0.2497636 -0.9683068
vn -1.1208377E-08 -0.2497636 -0.9683068
vn -4.389364E-08 -0.99999994 -4.3711385E-08
vn -4.389364E-08 -0.99999994 -4.3711385E-08
vn -4.389364E-08 -0.99999994 -4.3711385E-08
vn -4.389364E-08 -0.99999994 -4.3711385E-08
vn -1.1022544E-08 -0.24976367 0.9683068
vn -1.1022544E-08 -0.24976367 0.9683068
vn -1.1022544E-08 -0.24976367 0.9683068
vn -1.1022544E-08 -0.24976367 0.9683068
vn 1.0605343E-08 0.24976362 0.9683068
vn 1.0605343E-08 0.24976362 0.9683068
vn 1.0605343E-08 0.24976362 0.9683068
vn 1.0605343E-08 0.24976362 0.9683068
vn 1 7.134567E-07 3.1186184E-14
vn 1 7.134567E-07 3.1186184E-14
vn 1 7.134567E-07 3.1186184E-14
vn 1 7.134567E-07 3.1186184E-14
vn 1 7.134567E-07 3.1186184E-14
vn 1 7.134567E-07 3.1186184E-14
vn 4.1803457E-08 0.99999994 4.3711385E-08
vn 4.1803457E-08 0.99999994 4.3711385E-08
vn 4.1803457E-08 0.99999994 4.3711385E-08
vn 4.1803457E-08 0.99999994 4.3711385E-08
vn 1.1732413E-08 0.24976368 -0.9683068
vn 1.1732413E-08 0.24976368 -0.9683068
vn 1.1732413E-08 0.24976368 -0.9683068
vn 1.1732413E-08 0.24976368 -0.9683068
vn -1 -7.134567E-07 -3.1186184E-14
vn -1 -7.134567E-07 -3.1186184E-14
vn -1 -7.134567E-07 -3.1186184E-14
vn -1 -7.134567E-07 -3.1186184E-14
vn -1 -7.134567E-07 -3.1186184E-14
vn -1 -7.134567E-07 -3.1186184E-14
vn -1.1258391E-08 -0.24976371 -0.9683068
vn -1.1258391E-08 -0.24976371 -0.9683068
vn -1.1258391E-08 -0.24976371 -0.9683068
vn -1.1258391E-08 -0.24976371 -0.9683068
vn -4.3893642E-08 -0.99999994 7.835937E-08
vn -4.3893642E-08 -0.99999994 7.835937E-08
vn -4.3893642E-08 -0.99999994 7.835937E-08
vn -4.3893642E-08 -0.99999994 7.835937E-08
vn -1.1480886E-08 -0.24976368 0.9683068
vn -1.1480886E-08 -0.24976368 0.9683068
vn -1.1480886E-08 -0.24976368 0.9683068
vn -1.1480886E-08 -0.24976368 0.9683068
vn 1.1746359E-08 0.24976365 0.9683068
vn 1.1746359E-08 0.24976365 0.9683068
vn 1.1746359E-08 0.24976365 0.9683068
vn 1.1746359E-08 0.24976365 0.9683068
vn 1 -1.4269136E-06 -6.2372376E-14
vn 1 -1.4269136E-06 -6.2372376E-14
vn 1 -1.4269136E-06 -6.2372376E-14
vn 1 -1.4269136E-06 -6.2372376E-14
vn 1 -1.4269136E-06 -6.2372376E-14
vn 1 -1.4269136E-06 -6.2372376E-14
vn 4.4938723E-08 0.99999994 4.3711385E-08
vn 4.4938723E-08 0.99999994 4.3711385E-08
vn 4.4938723E-08 0.99999994 4.3711385E-08
vn 4.4938723E-08 0.99999994 4.3711385E-08
vn 1.059351E-08 0.24976376 -0.96830684
vn 1.059351E-08 0.24976376 -0.96830684
vn 1.059351E-08 0.24976376 -0.96830684
vn 1.059351E-08 0.24976376 -0.96830684
vn -1 0 0
vn -1 0 0
vn -1 0 0
vn -1 0 0
vn -1 0 0
vn -1 0 0
# 252 vertex normals

vt 0.11174092 0.8925902 0
vt 0.602064 0.7503278 0
vt 0.602064 0.7315246 0
vt 0.11174092 0.87125915 0
vt 0.004010856 0.41537264 0
vt 0.96602154 0.916815 0
vt 0.03340351 0.73086965 0
vt 0.6183481 0.75972944 0
vt 0.9611 0.91804534 0
vt 0.94038343 0.92243546 0
vt 0.6354183 0.7498175 0
vt 0.00402081 0.4564077 0
vt 0.03340351 0.73086965 0
vt 0.023733549 0.897289 0
vt 0.98396456 0.4564039 0
vt 0.5333806 0.9052822 0
vt 0.29690993 0.8925902 0
vt 0.5318727 0.9661672 0
vt 0.60035586 0.7498175 0
vt 0.32166702 0.87125915 0
vt 0.7521572 0.9437777 0
vt 0.5341844 0.9204748 0
vt 0.53327215 0.9204748 0
vt 0.023733549 0.897289 0
vt 0.6434248 0.9331187 0
vt 0.4734624 0.96470857 0
vt 0.9623302 0.9217365 0
vt 0.9839542 0.41552913 0
vt 0.5333806 0.9052822 0
vt 0.5318727 0.9661672 0
vt 0.602064 0.7503278 0
vt 0.6178871 0.75993913 0
vt 0.6183481 0.72212297 0
vt 0.602064 0.7315246 0
vt 0.9839542 0.41521874 0
vt 0.4734624 0.96470857 0
vt 0.38043952 0.82597595 0
vt 0.94038403 0.93310106 0
vt 0.00402081 0.45656797 0
vt 0.60035586 0.7295742 0
vt 0.004010856 0.41553295 0
vt 0.03340351 0.73086965 0
vt 0.5318727 0.9052822 0
vt 0.6354183 0.7498175 0
vt 0.38043952 0.82597595 0
vt 0.33951274 0.8412322 0
vt 0.64342546 0.9437842 0
vt 0.32166702 0.8819247 0
vt 0.53327215 0.9311404 0
vt 0.5333806 0.9505845 0
vt 0.3552549 0.87125915 0
vt 0.98396456 0.45624363 0
vt 0.3348989 0.9206359 0
vt 0.64342415 0.9224531 0
vt 0.6178871 0.71945256 0
vt 0.98396456 0.4564039 0
vt 0.023733549 0.897289 0
vt 0.5318727 0.9052822 0
vt 0.6354183 0.7295742 0
vt 0.9839542 0.4152086 0
vt 0.3348989 0.9206359 0
vt 0.63463223 0.7503278 0
vt 0.96602154 0.9505845 0
vt 0.29690993 0.87125915 0
vt 0.6787578 0.93311656 0
vt 0.6178871 0.75993913 0
vt 0.6183481 0.72212297 0
vt 0.00402081 0.45624745 0
vt 0.004010856 0.4152124 0
vt 0.9839542 0.41521874 0
vt 0.73130393 0.94377893 0
vt 0.11174092 0.88192475 0
vt 0.429764 0.8901315 0
vt 0.00402081 0.45656797 0
vt 0.60035586 0.7295742 0
vt 0.37402266 0.9167063 0
vt 0.33951274 0.8412322 0
vt 0.004010856 0.41553295 0
vt 0.004010856 0.4152225 0
vt 0.3552549 0.88192475 0
vt 0.962582 0.9418059 0
vt 0.6183481 0.75972944 0
vt 0.98396456 0.4565642 0
vt 0.69860345 0.9224498 0
vt 0.9839542 0.41536888 0
vt 0.429764 0.8901315 0
vt 0.42962912 0.92996144 0
vt 0.98396456 0.45624363 0
vt 0.6791223 0.92245096 0
vt 0.5341844 0.9418059 0
vt 0.6178871 0.71945256 0
vt 0.63463223 0.7315246 0
vt 0.6354183 0.7295742 0
vt 0.9839542 0.4152086 0
vt 0.42962912 0.92996144 0
vt 0.29690993 0.8819247 0
vt 0.47285876 0.9506832 0
vt 0.63463223 0.7503278 0
vt 0.73130274 0.92244786 0
vt 0.75215673 0.93311226 0
vt 0.9839542 0.41552913 0
vt 0.00402081 0.45624745 0
vt 0.6787572 0.92245096 0
vt 0.004010856 0.4152124 0
vt 0.47285876 0.9506832 0
vt 0.37402266 0.9167063 0
vt 0.96602154 0.9505845 0
vt 0.5318727 0.9661672 0
vt 0.6791236 0.94378203 0
vt 0.004010856 0.4152225 0
vt 0.3552549 0.8925902 0
vt 0.53327215 0.9418059 0
vt 0.962582 0.9311403 0
vt 0.96233034 0.92173654 0
vt 0.962582 0.9204748 0
vt 0.98396456 0.4565642 0
vt 0.9839542 0.41536888 0
vt 0.004010856 0.41537264 0
vt 0.96602154 0.9505845 0
vt 0.73130333 0.93311346 0
vt 0.63463223 0.7315246 0
vt 0.00402081 0.4564077 0
vt 0.96233034 0.92173654 0
vt 0.9403847 0.94376653 0
vt 0.5333806 0.9505845 0
vt 0.6787584 0.94378203 0
vt 0.75215596 0.9224466 0
vt 0.32166702 0.8925902 0
vt 0.6791229 0.9331165 0
vt 0.60035586 0.7498175 0
vt 0.6986041 0.9331155 0
vt 0.5333806 0.9505845 0
vt 0.53418434 0.9311403 0
vt 0.6986047 0.9437809 0
# 134 texture coords

usemtl Wood
s 1
f 1/29/1 3/132/2 4/119/3 2/9/4
f 1/29/5 5/58/6 6/30/7 3/132/8
f 5/58/9 7/86/10 8/95/11 15/105/12 16/36/13 6/30/14
f 7/86/15 9/45/16 10/76/17 8/95/18
f 9/45/19 11/46/20 12/61/21 10/76/22
f 11/46/23 13/13/24 14/24/25 12/61/26
f 17/16/27 18/6/28 20/107/29 19/125/30
f 17/16/31 19/125/32 22/18/33 21/43/34
f 21/43/35 22/18/36 32/26/37 31/97/38 24/87/39 23/73/40
f 23/73/41 24/87/42 26/106/43 25/37/44
f 25/37/45 26/106/46 28/53/47 27/77/48
f 27/77/49 28/53/50 30/14/51 29/7/52
f 34/133/53 33/113/54 18/115/55 17/22/56
f 36/57/57 35/42/58 29/7/59 30/14/60
f 38/80/61 37/49/62 21/23/63 23/51/64
f 33/27/65 39/63/66 20/107/67 18/114/68
f 40/100/69 36/38/70 30/10/71 28/127/72
f 39/63/73 41/50/74 19/125/75 20/107/76
f 35/72/77 42/96/78 27/64/79 29/4/80
f 44/131/81 43/120/82 26/99/83 24/84/84
f 46/65/85 45/129/86 31/89/87 32/103/88
f 47/48/89 38/80/90 23/51/91 25/20/92
f 41/50/93 48/108/94 22/18/95 19/125/96
f 48/25/97 46/65/98 32/103/99 22/54/100
f 37/49/101 34/133/102 17/22/103 21/23/104
f 43/120/105 40/100/106 28/127/107 26/99/108
f 42/96/109 47/48/110 25/20/111 27/64/112
f 45/129/113 44/131/114 24/84/115 31/89/116
f 15/109/117 8/134/118 44/131/119 45/129/120
f 11/17/121 9/128/122 47/48/123 42/96/124
f 10/71/125 12/21/126 40/100/127 43/120/128
f 5/112/129 1/90/130 34/133/131 37/49/132
f 6/47/133 16/126/134 46/65/135 48/25/136
f 3/132/137 6/30/138 48/108/139 41/50/140
f 9/128/141 7/111/142 38/80/143 47/48/144
f 16/126/145 15/109/146 45/129/147 46/65/148
f 8/134/149 10/71/150 43/120/151 44/131/152
f 13/1/153 11/17/154 42/96/155 35/72/156
f 4/119/157 3/132/158 41/50/159 39/63/160
f 12/21/161 14/124/162 36/38/163 40/100/164
f 2/123/165 4/119/166 39/63/167 33/27/168
f 7/111/169 5/112/170 37/49/171 38/80/172
f 14/24/173 13/13/174 35/42/175 36/57/176
f 1/90/177 2/81/178 33/113/179 34/133/180
#60 polygons

usemtl Metal
s 2
f 49/78/181 50/101/182 52/116/183 51/74/184
f 51/74/185 52/116/186 54/117/187 53/5/188
f 53/5/189 54/117/190 56/56/191 55/12/192
f 55/12/193 56/56/194 58/94/195 57/104/196
f 52/44/197 50/66/198 60/19/199 58/75/200 56/91/201 54/93/202
f 57/104/203 58/94/204 60/88/205 59/102/206
f 59/102/207 60/88/208 50/70/209 49/110/210
f 49/8/211 51/98/212 53/121/213 55/67/214 57/34/215 59/31/216
#60 polygons

usemtl Metal.001
s 4
f 61/41/217 62/28/218 64/83/219 63/39/220
f 63/39/221 64/83/222 66/85/223 65/118/224
f 65/118/225 66/85/226 68/15/227 67/122/228
f 67/122/229 68/15/230 70/60/231 69/69/232
f 64/11/233 62/32/234 72/130/235 70/40/236 68/55/237 66/59/238
f 69/69/239 70/60/240 72/52/241 71/68/242
f 71/68/243 72/52/244 62/35/245 61/79/246
f 61/82/247 63/62/248 65/92/249 67/33/250 69/3/251 71/2/252
#60 polygons

